<svg width="50" height="50" viewBox="0 0 50 50" fill="none" xmlns="http://www.w3.org/2000/svg">
<path d="M41.9999 29L38.3332 21.6667C38.0184 21.1546 37.577 20.7323 37.0515 20.4404C36.5261 20.1485 35.9343 19.9968 35.3333 20H14.6666C14.0655 19.9968 13.4737 20.1485 12.9483 20.4404C12.4228 20.7323 11.9814 21.1546 11.6666 21.6667L7.99992 29L3.86659 32.84C3.69861 32.9958 3.56456 33.1845 3.4728 33.3944C3.38103 33.6043 3.33353 33.8309 3.33325 34.06V48.3333C3.33325 48.7754 3.50885 49.1993 3.82141 49.5118C4.13397 49.8244 4.55789 50 4.99992 50H11.6666C12.3333 50 13.3333 49.3333 13.3333 48.6667V46.6667H36.6666V48.3333C36.6666 49 37.3332 50 37.9999 50H44.9999C45.4419 50 45.8659 49.8244 46.1784 49.5118C46.491 49.1993 46.6666 48.7754 46.6666 48.3333V34.06C46.6663 33.8309 46.6188 33.6043 46.527 33.3944C46.4353 33.1845 46.3012 32.9958 46.1332 32.84L41.9999 29ZM14.9999 23.3333H34.9999L38.3332 30H11.6666L14.9999 23.3333ZM16.6666 38.6667C16.6666 39.3333 15.6666 40 14.9999 40H7.99992C7.33325 40 6.66658 39 6.66658 38.3333V34.6667C6.99992 33.6667 7.66658 33 8.66658 33.3333L15.3333 34.6667C15.9999 34.6667 16.6666 35.6667 16.6666 36.3333V38.6667ZM43.3332 38.3333C43.3332 39 42.6666 40 41.9999 40H34.9999C34.3332 40 33.3332 39.3333 33.3332 38.6667V36.3333C33.3332 35.6667 33.9999 34.6667 34.6666 34.6667L41.3332 33.3333C42.3332 33 42.9999 33.6667 43.3332 34.6667V38.3333ZM26.6666 13.3333H23.3333L19.9999 0H29.9999L26.6666 13.3333ZM3.66659 6L12.3333 1L15.9999 14.3333L13.3333 15.6667L3.66659 6ZM37.6666 1L46.3332 6L36.6666 16L33.6666 14.3333L37.6666 1Z" fill="#3F4D39"/>
</svg>
