<svg width="32" height="32" viewBox="0 0 32 32" fill="none" xmlns="http://www.w3.org/2000/svg">
<path d="M18.01 3H14.94C14.3374 2.9998 13.746 3.16263 13.2284 3.47125C12.7108 3.77986 12.2863 4.22276 12 4.753V15.11H21.016V4.902C20.7459 4.33329 20.3202 3.85278 19.7881 3.51614C19.2561 3.17951 18.6396 3.00055 18.01 3ZM18.68 11.87H17.71V12.84C17.71 13.1662 17.5804 13.4791 17.3497 13.7097C17.1191 13.9404 16.8062 14.07 16.48 14.07C16.1538 14.07 15.8409 13.9404 15.6103 13.7097C15.3796 13.4791 15.25 13.1662 15.25 12.84V11.87H14.28C13.62 11.87 13.082 11.352 13.052 10.699C13.0636 10.3801 13.1977 10.0779 13.4264 9.85528C13.6551 9.6327 13.9609 9.50688 14.28 9.504H15.25V8.514C15.25 7.819 15.8 7.258 16.48 7.258C17.16 7.258 17.71 7.819 17.71 8.514V9.504H18.68C19.34 9.504 19.878 10.042 19.909 10.699C19.8938 11.0147 19.7577 11.3125 19.5289 11.5305C19.3001 11.7485 18.9961 11.8701 18.68 11.87ZM26.79 15.11H22.016V5.131C24.76 5.896 26.782 8.461 26.79 11.503V15.11ZM11 15.11V5.11C8.212 5.848 6.16 8.433 6.16 11.503V15.108L11 15.11ZM6.09 16.06H26.84C28 16.06 28.93 16.99 28.93 18.15C28.93 19.3 27.99 20.24 26.84 20.24H24.852V22.03C24.852 23.918 24.228 25.66 23.174 27.062C23.303 27.509 23.192 28.011 22.841 28.364C22.0076 29.2056 21.0153 29.8734 19.9219 30.3286C18.8284 30.7839 17.6554 31.0175 16.471 31.016C15.2875 31.0155 14.1158 30.7813 13.023 30.3269C11.9302 29.8725 10.9379 29.2068 10.103 28.368C9.93504 28.2004 9.81517 27.9908 9.75589 27.7611C9.69661 27.5314 9.7001 27.2899 9.766 27.062C8.67428 25.6118 8.08517 23.8452 8.088 22.03V20.24H6.09C4.94 20.24 4 19.3 4 18.15C4 17 4.94 16.06 6.09 16.06ZM23.408 22.03V20.24H9.532V22.03C9.532 23.558 10.026 24.97 10.863 26.116C11.259 26.063 11.673 26.189 11.977 26.493C12.5657 27.0854 13.2658 27.5557 14.0368 27.8768C14.8079 28.1979 15.6348 28.3635 16.47 28.364C18.224 28.364 19.809 27.654 20.96 26.496C21.263 26.19 21.68 26.063 22.077 26.116C22.9436 24.9301 23.4095 23.4988 23.407 22.03" fill="#3F4D39"/>
</svg>
