<svg width="50" height="50" viewBox="0 0 50 50" fill="none" xmlns="http://www.w3.org/2000/svg">
<path d="M28.1406 4.6875H23.3437C22.4022 4.68719 21.478 4.94162 20.6693 5.42383C19.8606 5.90604 19.1974 6.59806 18.75 7.42656V23.6094H32.8375V7.65938C32.4155 6.77077 31.7503 6.01996 30.919 5.49398C30.0877 4.96799 29.1243 4.68836 28.1406 4.6875ZM29.1875 18.5469H27.6719V20.0625C27.6719 20.5722 27.4694 21.061 27.109 21.4215C26.7485 21.7819 26.2597 21.9844 25.75 21.9844C25.2403 21.9844 24.7515 21.7819 24.391 21.4215C24.0306 21.061 23.8281 20.5722 23.8281 20.0625V18.5469H22.3125C21.2812 18.5469 20.4406 17.7375 20.3938 16.7172C20.4118 16.2188 20.6214 15.7467 20.9787 15.3989C21.3361 15.0511 21.8138 14.8545 22.3125 14.85H23.8281V13.3031C23.8281 12.2172 24.6875 11.3406 25.75 11.3406C26.8125 11.3406 27.6719 12.2172 27.6719 13.3031V14.85H29.1875C30.2188 14.85 31.0594 15.6906 31.1078 16.7172C31.0841 17.2105 30.8714 17.6757 30.5139 18.0164C30.1563 18.3571 29.6814 18.547 29.1875 18.5469ZM41.8594 23.6094H34.4V8.01719C38.6875 9.2125 41.8469 13.2203 41.8594 17.9734V23.6094ZM17.1875 23.6094V7.98438C12.8312 9.1375 9.625 13.1766 9.625 17.9734V23.6062L17.1875 23.6094ZM9.51563 25.0937H41.9375C43.75 25.0937 45.2031 26.5469 45.2031 28.3594C45.2031 30.1562 43.7344 31.625 41.9375 31.625H38.8312V34.4219C38.8312 37.3719 37.8562 40.0938 36.2094 42.2844C36.4109 42.9828 36.2375 43.7672 35.6891 44.3188C34.3868 45.6338 32.8365 46.6772 31.1279 47.3885C29.4194 48.0998 27.5866 48.4648 25.7359 48.4625C23.8867 48.4617 22.0559 48.0958 20.3484 47.3858C18.6409 46.6758 17.0905 45.6356 15.7859 44.325C15.5235 44.0632 15.3362 43.7357 15.2436 43.3767C15.1509 43.0177 15.1564 42.6405 15.2594 42.2844C13.5536 40.0184 12.6331 37.2581 12.6375 34.4219V31.625H9.51563C7.71875 31.625 6.25 30.1562 6.25 28.3594C6.25 26.5625 7.71875 25.0937 9.51563 25.0937ZM36.575 34.4219V31.625H14.8937V34.4219C14.8937 36.8094 15.6656 39.0156 16.9734 40.8062C17.5922 40.7234 18.2391 40.9203 18.7141 41.3953C19.634 42.321 20.7277 43.0558 21.9325 43.5575C23.1373 44.0592 24.4293 44.3179 25.7344 44.3188C28.475 44.3188 30.9516 43.2094 32.75 41.4C33.2234 40.9219 33.875 40.7234 34.4953 40.8062C35.8493 38.9533 36.5773 36.7168 36.5734 34.4219" fill="#3F4D39"/>
</svg>
