<svg width="60" height="61" viewBox="0 0 60 61" fill="none" xmlns="http://www.w3.org/2000/svg">
<g clip-path="url(#clip0_29_333)">
<path d="M1.28038 29.8725C1.27897 34.9531 2.60647 39.9139 5.13069 44.2864L1.03897 59.2259L16.3277 55.2171C20.5564 57.5192 25.2943 58.7254 30.109 58.7257H30.1216C46.0158 58.7257 58.954 45.7922 58.9608 29.8953C58.9638 22.1921 55.9666 14.9485 50.5212 9.49877C45.0766 4.04955 37.8356 1.04697 30.1205 1.04346C14.2244 1.04346 1.28717 13.9763 1.28061 29.8725" fill="url(#paint0_linear_29_333)"/>
<path d="M0.250781 29.8631C0.249141 35.1265 1.62422 40.2647 4.23844 44.7937L0 60.2688L15.837 56.1164C20.2005 58.4955 25.1135 59.7499 30.1127 59.7518H30.1256C46.59 59.7518 59.993 46.353 60 29.887C60.0028 21.907 56.8978 14.403 51.2578 8.75813C45.6171 3.11391 38.1171 0.00328125 30.1256 0C13.6584 0 0.257344 13.3969 0.250781 29.8631ZM9.68227 44.0138L9.09094 43.0751C6.60516 39.1226 5.29312 34.5551 5.295 29.865C5.30016 16.1787 16.4386 5.04375 30.135 5.04375C36.7678 5.04656 43.0012 7.63219 47.6897 12.3234C52.3779 17.0152 54.9577 23.2519 54.956 29.8852C54.9499 43.5715 43.8112 54.7078 30.1256 54.7078H30.1158C25.6596 54.7055 21.2892 53.5087 17.4778 51.2473L16.5708 50.7094L7.17281 53.1734L9.68227 44.0138Z" fill="url(#paint1_linear_29_333)"/>
<path d="M22.6589 17.3784C22.0997 16.1355 21.5112 16.1105 20.9794 16.0887C20.5439 16.0699 20.0461 16.0713 19.5487 16.0713C19.0509 16.0713 18.2421 16.2586 17.5584 17.0051C16.8741 17.7523 14.9456 19.5579 14.9456 23.2303C14.9456 26.903 17.6205 30.4521 17.9934 30.9506C18.3668 31.4482 23.1574 39.2257 30.7446 42.2177C37.0502 44.7042 38.3334 44.2097 39.7019 44.085C41.0707 43.9608 44.1185 42.2798 44.7403 40.5368C45.3626 38.794 45.3626 37.3001 45.176 36.9879C44.9894 36.6769 44.4916 36.4901 43.7451 36.1169C42.9984 35.7436 39.3286 33.9377 38.6444 33.6886C37.9601 33.4397 37.4625 33.3155 36.9647 34.0629C36.4669 34.8091 35.0374 36.4901 34.6017 36.9879C34.1665 37.4869 33.7308 37.549 32.9845 37.1756C32.2376 36.8011 29.8336 36.0138 26.9815 33.4711C24.7624 31.4925 23.2643 29.0491 22.8288 28.3017C22.3934 27.5555 22.7822 27.1509 23.1565 26.779C23.4919 26.4445 23.9032 25.9073 24.2768 25.4716C24.649 25.0357 24.7732 24.7247 25.0221 24.2269C25.2712 23.7286 25.1466 23.2926 24.9602 22.9193C24.7732 22.5459 23.3226 18.8543 22.6589 17.3784Z" fill="white"/>
</g>
<defs>
<linearGradient id="paint0_linear_29_333" x1="2897.13" y1="5819.29" x2="2897.13" y2="1.04346" gradientUnits="userSpaceOnUse">
<stop stop-color="#1FAF38"/>
<stop offset="1" stop-color="#60D669"/>
</linearGradient>
<linearGradient id="paint1_linear_29_333" x1="3000" y1="6026.88" x2="3000" y2="0" gradientUnits="userSpaceOnUse">
<stop stop-color="#F9F9F9"/>
<stop offset="1" stop-color="white"/>
</linearGradient>
<clipPath id="clip0_29_333">
<rect width="60" height="60.4688" fill="white"/>
</clipPath>
</defs>
</svg>
