<svg width="50" height="50" viewBox="0 0 50 50" fill="none" xmlns="http://www.w3.org/2000/svg">
<path d="M25 14.5834V27.0834" stroke="#3F4D39" stroke-width="1.5" stroke-linecap="round"/>
<path d="M25.0001 35.4167C26.1507 35.4167 27.0834 34.4839 27.0834 33.3333C27.0834 32.1827 26.1507 31.25 25.0001 31.25C23.8495 31.25 22.9167 32.1827 22.9167 33.3333C22.9167 34.4839 23.8495 35.4167 25.0001 35.4167Z" fill="#3F4D39"/>
<path d="M16.3396 7.92085C20.5667 5.41877 22.6792 4.16669 25 4.16669C27.3208 4.16669 29.4333 5.41669 33.6604 7.92085L35.0896 8.76669C39.3167 11.2709 41.4292 12.5229 42.5896 14.5834C43.75 16.6459 43.75 19.1459 43.75 24.1542V25.8459C43.75 30.8521 43.75 33.3563 42.5896 35.4167C41.4292 37.4792 39.3167 38.7292 35.0896 41.2313L33.6604 42.0792C29.4333 44.5813 27.3208 45.8334 25 45.8334C22.6792 45.8334 20.5667 44.5834 16.3396 42.0792L14.9104 41.2313C10.6833 38.7313 8.57083 37.4771 7.41042 35.4167C6.25 33.3542 6.25 30.8542 6.25 25.8459V24.1542C6.25 19.1459 6.25 16.6438 7.41042 14.5834C8.57083 12.5209 10.6833 11.2709 14.9104 8.76669L16.3396 7.92085Z" stroke="#3F4D39" stroke-width="1.5"/>
</svg>
