<svg width="50" height="40" viewBox="0 0 50 40" fill="none" xmlns="http://www.w3.org/2000/svg">
<g clip-path="url(#clip0_25_162)">
<path d="M14.375 3.75H25.625C25.9688 3.75 26.25 4.03125 26.25 4.375V7.5H13.75V4.375C13.75 4.03125 14.0312 3.75 14.375 3.75ZM10 4.375V7.5H5C2.24219 7.5 0 9.74219 0 12.5V20H28.1406C30.6641 16.9453 34.4766 15 38.75 15C39.1719 15 39.5859 15.0156 40 15.0547V12.5C40 9.74219 37.7578 7.5 35 7.5H30V4.375C30 1.96094 28.0391 0 25.625 0H14.375C11.9609 0 10 1.96094 10 4.375ZM25 27.5H17.5C16.1172 27.5 15 26.3828 15 25V22.5H0V32.5C0 35.2578 2.24219 37.5 5 37.5H28.1406C26.1797 35.125 25 32.0703 25 28.75C25 28.3281 25.0156 27.9141 25.0547 27.5H25ZM50 28.75C50 25.7663 48.8147 22.9048 46.7049 20.795C44.5952 18.6853 41.7337 17.5 38.75 17.5C35.7663 17.5 32.9048 18.6853 30.795 20.795C28.6853 22.9048 27.5 25.7663 27.5 28.75C27.5 31.7337 28.6853 34.5952 30.795 36.7049C32.9048 38.8147 35.7663 40 38.75 40C41.7337 40 44.5952 38.8147 46.7049 36.7049C48.8147 34.5952 50 31.7337 50 28.75ZM38.75 22.5C39.4375 22.5 40 23.0625 40 23.75V27.5H42.5C43.1875 27.5 43.75 28.0625 43.75 28.75C43.75 29.4375 43.1875 30 42.5 30H38.75C38.0625 30 37.5 29.4375 37.5 28.75V23.75C37.5 23.0625 38.0625 22.5 38.75 22.5Z" fill="#3F4D39"/>
</g>
<defs>
<clipPath id="clip0_25_162">
<rect width="50" height="40" fill="white"/>
</clipPath>
</defs>
</svg>
