<svg width="50" height="50" viewBox="0 0 50 50" fill="none" xmlns="http://www.w3.org/2000/svg">
<path d="M41.6667 16.6666L25 27.0833L8.33334 16.6666V12.4999L25 22.9166L41.6667 12.4999M41.6667 8.33325H8.33334C6.02084 8.33325 4.16667 10.1874 4.16667 12.4999V37.4999C4.16667 38.605 4.60566 39.6648 5.38706 40.4462C6.16846 41.2276 7.22827 41.6666 8.33334 41.6666H41.6667C42.7717 41.6666 43.8316 41.2276 44.613 40.4462C45.3944 39.6648 45.8333 38.605 45.8333 37.4999V12.4999C45.8333 11.3948 45.3944 10.335 44.613 9.55364C43.8316 8.77224 42.7717 8.33325 41.6667 8.33325Z" fill="white"/>
</svg>
