<svg width="50" height="50" viewBox="0 0 50 50" fill="none" xmlns="http://www.w3.org/2000/svg">
<path fill-rule="evenodd" clip-rule="evenodd" d="M9.375 3.125C9.375 2.2962 9.70424 1.50134 10.2903 0.915291C10.8763 0.32924 11.6712 0 12.5 0L37.5 0C38.3287 0.000176992 39.1235 0.329533 39.7094 0.915625L45.9594 7.16562C46.5455 7.75154 46.8748 8.54627 46.875 9.375V25C45.9076 24.2726 44.8589 23.6601 43.75 23.175V12.5H37.5C36.6712 12.5 35.8763 12.1708 35.2903 11.5847C34.7042 10.9987 34.375 10.2038 34.375 9.375V3.125H12.5V40.625H22.1875C22.4062 41.7125 22.7406 42.7563 23.175 43.75H12.5C11.6712 43.75 10.8763 43.4208 10.2903 42.8347C9.70424 42.2487 9.375 41.4538 9.375 40.625V3.125ZM25 46.875H6.25V6.25C5.4212 6.25 4.62634 6.57924 4.04029 7.16529C3.45424 7.75134 3.125 8.5462 3.125 9.375V46.875C3.125 47.7038 3.45424 48.4987 4.04029 49.0847C4.62634 49.6708 5.4212 50 6.25 50H28.125C26.9413 49.1107 25.8893 48.0587 25 46.875ZM50 37.5C50 40.8152 48.683 43.9946 46.3388 46.3388C43.9946 48.683 40.8152 50 37.5 50C34.1848 50 31.0054 48.683 28.6612 46.3388C26.317 43.9946 25 40.8152 25 37.5C25 34.1848 26.317 31.0054 28.6612 28.6612C31.0054 26.317 34.1848 25 37.5 25C40.8152 25 43.9946 26.317 46.3388 28.6612C48.683 31.0054 50 34.1848 50 37.5ZM44.8563 33.2687C45.0018 33.4139 45.1172 33.5863 45.196 33.7761C45.2747 33.966 45.3153 34.1695 45.3153 34.375C45.3153 34.5805 45.2747 34.784 45.196 34.9739C45.1172 35.1637 45.0018 35.3361 44.8563 35.4813L37.0438 43.2938C36.8986 43.4393 36.7262 43.5547 36.5364 43.6335C36.3465 43.7122 36.143 43.7528 35.9375 43.7528C35.732 43.7528 35.5285 43.7122 35.3386 43.6335C35.1488 43.5547 34.9764 43.4393 34.8312 43.2938L31.7062 40.1688C31.4129 39.8754 31.248 39.4774 31.248 39.0625C31.248 38.6476 31.4129 38.2496 31.7062 37.9562C31.9996 37.6629 32.3976 37.498 32.8125 37.498C33.2274 37.498 33.6254 37.6629 33.9188 37.9562L35.9375 39.9781L42.6437 33.2687C42.7889 33.1232 42.9613 33.0078 43.1511 32.929C43.341 32.8503 43.5445 32.8097 43.75 32.8097C43.9555 32.8097 44.159 32.8503 44.3489 32.929C44.5387 33.0078 44.7111 33.1232 44.8563 33.2687Z" fill="#3F4D39"/>
</svg>
