<svg width="16" height="16" viewBox="0 0 16 16" fill="none" xmlns="http://www.w3.org/2000/svg">
<path fill-rule="evenodd" clip-rule="evenodd" d="M3 1C3 0.734784 3.10536 0.48043 3.29289 0.292893C3.48043 0.105357 3.73478 0 4 0L12 0C12.2652 5.66374e-05 12.5195 0.105451 12.707 0.293L14.707 2.293C14.8945 2.48049 14.9999 2.73481 15 3V8C14.6904 7.76722 14.3548 7.57124 14 7.416V4H12C11.7348 4 11.4804 3.89464 11.2929 3.70711C11.1054 3.51957 11 3.26522 11 3V1H4V13H7.1C7.17 13.348 7.277 13.682 7.416 14H4C3.73478 14 3.48043 13.8946 3.29289 13.7071C3.10536 13.5196 3 13.2652 3 13V1ZM8 15H2V2C1.73478 2 1.48043 2.10536 1.29289 2.29289C1.10536 2.48043 1 2.73478 1 3V15C1 15.2652 1.10536 15.5196 1.29289 15.7071C1.48043 15.8946 1.73478 16 2 16H9C8.62123 15.7154 8.28457 15.3788 8 15ZM16 12C16 13.0609 15.5786 14.0783 14.8284 14.8284C14.0783 15.5786 13.0609 16 12 16C10.9391 16 9.92172 15.5786 9.17157 14.8284C8.42143 14.0783 8 13.0609 8 12C8 10.9391 8.42143 9.92172 9.17157 9.17157C9.92172 8.42143 10.9391 8 12 8C13.0609 8 14.0783 8.42143 14.8284 9.17157C15.5786 9.92172 16 10.9391 16 12ZM14.354 10.646C14.4006 10.6924 14.4375 10.7476 14.4627 10.8084C14.4879 10.8691 14.5009 10.9342 14.5009 11C14.5009 11.0658 14.4879 11.1309 14.4627 11.1916C14.4375 11.2524 14.4006 11.3076 14.354 11.354L11.854 13.854C11.8076 13.9006 11.7524 13.9375 11.6916 13.9627C11.6309 13.9879 11.5658 14.0009 11.5 14.0009C11.4342 14.0009 11.3691 13.9879 11.3084 13.9627C11.2476 13.9375 11.1924 13.9006 11.146 13.854L10.146 12.854C10.0521 12.7601 9.99937 12.6328 9.99937 12.5C9.99937 12.3672 10.0521 12.2399 10.146 12.146C10.2399 12.0521 10.3672 11.9994 10.5 11.9994C10.6328 11.9994 10.7601 12.0521 10.854 12.146L11.5 12.793L13.646 10.646C13.6924 10.5994 13.7476 10.5625 13.8084 10.5373C13.8691 10.5121 13.9342 10.4991 14 10.4991C14.0658 10.4991 14.1309 10.5121 14.1916 10.5373C14.2524 10.5625 14.3076 10.5994 14.354 10.646Z" fill="#3F4D39"/>
</svg>
