<svg width="50" height="50" viewBox="0 0 50 50" fill="none" xmlns="http://www.w3.org/2000/svg">
<g clip-path="url(#clip0_80_108)">
<path d="M42.1874 7.5C40.9374 6.25 39.0624 5.9375 37.4999 6.5625C37.4999 5.625 37.1874 4.6875 36.2499 3.75C35.6249 3.125 34.3749 2.5 32.8124 2.5C31.8749 2.5 31.2499 2.8125 30.6249 2.8125C30.6249 2.1875 30.3124 1.875 29.9999 1.25C28.4374 -0.625 25.3124 -0.625 23.7499 1.25C23.1249 1.875 22.4999 2.5 22.4999 3.125C21.8749 3.125 21.2499 2.8125 20.6249 2.8125C19.0624 2.8125 18.1249 3.4375 17.1874 4.375C15.6249 5.9375 15.6249 8.4375 15.6249 8.4375V20.3125C14.6874 19.375 13.1249 17.8125 10.9374 17.8125C10.3124 17.8125 9.37492 18.125 8.74992 18.4375C7.49992 19.0625 6.87492 20 6.56242 21.25C5.62492 24.375 8.43742 28.75 8.43742 29.0625C8.74992 29.375 12.1874 37.5 15.3124 40.9375C18.4374 44.6875 21.8749 46.875 30.6249 46.875C39.6874 46.875 43.7499 41.875 43.7499 30.9375V13.75C43.7499 13.4375 44.0624 9.6875 42.1874 7.5ZM24.9999 6.25C24.9999 5.3125 24.6874 3.125 26.5624 3.125C28.1249 3.125 28.1249 4.6875 28.1249 6.25V18.75C28.1249 19.6875 28.7499 20.3125 29.6874 20.3125C30.6249 20.3125 31.2499 19.6875 31.2499 18.75V6.875C31.2499 6.875 31.2499 5.625 32.8124 5.625C34.6874 5.625 34.3749 8.4375 34.3749 8.4375V18.75C34.3749 19.6875 34.9999 20.3125 35.9374 20.3125C36.8749 20.3125 37.4999 19.6875 37.4999 18.75V11.25C37.4999 10.9375 37.4999 9.375 39.0624 9.375C40.6249 9.375 40.6249 12.5 40.6249 12.5V30.9375C40.6249 41.5625 36.5624 43.75 30.6249 43.75C23.1249 43.75 20.3124 42.1875 17.8124 38.75C14.9999 35.625 11.2499 27.5 11.2499 27.1875C10.3124 26.25 9.06242 23.4375 9.37492 22.1875C9.37492 21.875 9.68742 21.5625 9.99992 21.25C10.3124 21.25 10.6249 20.9375 10.6249 20.9375C11.8749 20.9375 13.1249 22.5 13.4374 23.125L15.3124 25.9375C15.6249 26.5625 16.5624 26.875 17.1874 26.5625C18.4374 26.5625 18.7499 25.9375 18.7499 25.3125V9.0625C18.7499 7.8125 18.7499 5.9375 20.3124 5.9375C21.5624 5.9375 21.8749 6.875 21.8749 8.4375V18.75C21.8749 19.6875 22.4999 20.3125 23.4374 20.3125C24.3749 20.3125 24.9999 19.6875 24.9999 18.75V6.25Z" fill="#3F4D39"/>
</g>
<defs>
<clipPath id="clip0_80_108">
<rect width="50" height="50" fill="white"/>
</clipPath>
</defs>
</svg>
